# xmcd
#
# Track frame offsets: 
#        150
#        15338
#        34848
#        48558
#        70853
#        87360
#        103680
#        119419
#        137984
#        153073
#        176134
#        191216
#        215319
#
# Disc length: 3288 seconds
#
# Revision: 0
# Processed by: cddbd v1.5.1PL0 Copyright (c) Steve Scherf et al.
# Submitted via: ExactAudioCopy v0.95a5
#
DISCID=b40cd60d
DTITLE=Becki Sue and Her Big Rockin' Daddies - The L.A.B. Results
DYEAR=2005
DGENRE=Blues
TTITLE0=Easy Go
TTITLE1=Natural Born Lover
TTITLE2=Mean, Mean Man
TTITLE3=Cross-eyed Cat
TTITLE4=Whiskey Drinkin' Woman
TTITLE5=No! I Ain't Gonna Let You Go
TTITLE6=I Got Love If You Want It
TTITLE7=Call Me Rockin'
TTITLE8=Just Your Fool
TTITLE9=Waterbed Lou
TTITLE10=I Can't Stop It
TTITLE11=Mean Mistreater
TTITLE12=Stranger Blues
EXTD=
EXTT0=
EXTT1=
EXTT2=
EXTT3=
EXTT4=
EXTT5=
EXTT6=
EXTT7=
EXTT8=
EXTT9=
EXTT10=
EXTT11=
EXTT12=
PLAYORDER=
